<svg width="400" height="240" viewBox="0 0 400 240" fill="none" xmlns="http://www.w3.org/2000/svg">
  <defs>
    <linearGradient id="bg-gradient" x1="0%" y1="0%" x2="100%" y2="100%">
      <stop offset="0%" style="stop-color:#8B5CF6;stop-opacity:0.1" />
      <stop offset="100%" style="stop-color:#3B82F6;stop-opacity:0.1" />
    </linearGradient>
    <linearGradient id="building-gradient" x1="0%" y1="0%" x2="100%" y2="100%">
      <stop offset="0%" style="stop-color:#1E40AF" />
      <stop offset="100%" style="stop-color:#1E3A8A" />
    </linearGradient>
    <linearGradient id="screen-gradient" x1="0%" y1="0%" x2="100%" y2="100%">
      <stop offset="0%" style="stop-color:#8B5CF6" />
      <stop offset="100%" style="stop-color:#7C3AED" />
    </linearGradient>
  </defs>
  
  <!-- Background -->
  <rect width="400" height="240" fill="url(#bg-gradient)" />
  
  <!-- Corporate Building -->
  <g transform="translate(50, 80)">
    <!-- Main Building -->
    <rect x="0" y="40" width="80" height="120" fill="url(#building-gradient)" />
    
    <!-- Building Windows -->
    <rect x="10" y="50" width="12" height="15" fill="#F59E0B" opacity="0.8" />
    <rect x="30" y="50" width="12" height="15" fill="#F59E0B" opacity="0.8" />
    <rect x="50" y="50" width="12" height="15" fill="#F59E0B" opacity="0.8" />
    
    <rect x="10" y="75" width="12" height="15" fill="#F59E0B" opacity="0.6" />
    <rect x="30" y="75" width="12" height="15" fill="#F59E0B" opacity="0.8" />
    <rect x="50" y="75" width="12" height="15" fill="#F59E0B" opacity="0.6" />
    
    <rect x="10" y="100" width="12" height="15" fill="#F59E0B" opacity="0.8" />
    <rect x="30" y="100" width="12" height="15" fill="#F59E0B" opacity="0.6" />
    <rect x="50" y="100" width="12" height="15" fill="#F59E0B" opacity="0.8" />
    
    <rect x="10" y="125" width="12" height="15" fill="#F59E0B" opacity="0.6" />
    <rect x="30" y="125" width="12" height="15" fill="#F59E0B" opacity="0.8" />
    <rect x="50" y="125" width="12" height="15" fill="#F59E0B" opacity="0.6" />
    
    <!-- Building Entrance -->
    <rect x="25" y="140" width="30" height="20" fill="#374151" />
    <rect x="30" y="145" width="20" height="15" fill="#6B7280" />
    
    <!-- Company Logo -->
    <rect x="20" y="20" width="40" height="15" rx="2" fill="white" />
    <rect x="25" y="25" width="30" height="5" rx="1" fill="#8B5CF6" />
  </g>
  
  <!-- Website Mockup -->
  <g transform="translate(180, 40)">
    <!-- Laptop -->
    <rect x="0" y="60" width="160" height="100" rx="8" fill="#374151" />
    <rect x="10" y="70" width="140" height="80" rx="4" fill="url(#screen-gradient)" />
    
    <!-- Website Content -->
    <rect x="20" y="80" width="120" height="12" rx="2" fill="white" opacity="0.9" />
    <rect x="20" y="98" width="80" height="6" rx="1" fill="white" opacity="0.7" />
    <rect x="20" y="108" width="100" height="6" rx="1" fill="white" opacity="0.7" />
    <rect x="20" y="118" width="60" height="6" rx="1" fill="white" opacity="0.7" />
    
    <!-- Navigation Menu -->
    <rect x="20" y="130" width="30" height="8" rx="1" fill="white" opacity="0.8" />
    <rect x="55" y="130" width="30" height="8" rx="1" fill="white" opacity="0.8" />
    <rect x="90" y="130" width="30" height="8" rx="1" fill="white" opacity="0.8" />
    
    <!-- Laptop Base -->
    <rect x="-10" y="160" width="180" height="8" rx="4" fill="#6B7280" />
  </g>
  
  <!-- Trust Badges -->
  <g transform="translate(280, 180)">
    <!-- Security Badge -->
    <circle cx="20" cy="20" r="15" fill="#10B981" opacity="0.8" />
    <path d="M12 20 L18 26 L28 14" stroke="white" stroke-width="2" fill="none" stroke-linecap="round" stroke-linejoin="round" />
    
    <!-- Quality Badge -->
    <circle cx="60" cy="20" r="15" fill="#F59E0B" opacity="0.8" />
    <path d="M60 10 L63 17 L70 17 L64.5 21.5 L66.5 28.5 L60 25 L53.5 28.5 L55.5 21.5 L50 17 L57 17 Z" fill="white" />
  </g>
  
  <!-- Professional Team -->
  <g transform="translate(30, 200)">
    <!-- Person 1 -->
    <circle cx="15" cy="15" r="10" fill="#3B82F6" />
    <rect x="5" y="27" width="20" height="8" rx="4" fill="#1E40AF" />
    
    <!-- Person 2 -->
    <circle cx="45" cy="15" r="10" fill="#8B5CF6" />
    <rect x="35" y="27" width="20" height="8" rx="4" fill="#7C3AED" />
    
    <!-- Person 3 -->
    <circle cx="75" cy="15" r="10" fill="#10B981" />
    <rect x="65" y="27" width="20" height="8" rx="4" fill="#059669" />
  </g>
  
  <!-- Connection Lines -->
  <g stroke="#8B5CF6" stroke-width="2" fill="none" opacity="0.4">
    <path d="M130 120 Q160 110 180 120" stroke-dasharray="3,3" />
    <path d="M90 180 Q140 170 180 160" stroke-dasharray="3,3" />
  </g>
  
  <!-- Floating Elements -->
  <circle cx="350" cy="50" r="4" fill="#8B5CF6" opacity="0.8" />
  <circle cx="370" cy="180" r="3" fill="#3B82F6" opacity="0.6" />
  <circle cx="20" cy="30" r="5" fill="#10B981" opacity="0.7" />
  
  <!-- Professional Icons -->
  <g transform="translate(320, 80)">
    <!-- Briefcase -->
    <rect x="10" y="15" width="20" height="15" rx="2" fill="#374151" />
    <rect x="12" y="12" width="16" height="3" rx="1" fill="#374151" />
    <rect x="17" y="8" width="6" height="4" rx="1" fill="#374151" />
    
    <!-- Handshake Icon -->
    <g transform="translate(0, 40)">
      <path d="M10 20 Q15 15 20 20 Q25 25 30 20" stroke="#3B82F6" stroke-width="3" fill="none" stroke-linecap="round" />
      <circle cx="15" cy="18" r="2" fill="#3B82F6" />
      <circle cx="25" cy="22" r="2" fill="#3B82F6" />
    </g>
  </g>
</svg>