<svg width="400" height="240" viewBox="0 0 400 240" fill="none" xmlns="http://www.w3.org/2000/svg">
  <defs>
    <linearGradient id="bg-gradient" x1="0%" y1="0%" x2="100%" y2="100%">
      <stop offset="0%" style="stop-color:#3B82F6;stop-opacity:0.1" />
      <stop offset="100%" style="stop-color:#8B5CF6;stop-opacity:0.1" />
    </linearGradient>
    <linearGradient id="screen-gradient" x1="0%" y1="0%" x2="100%" y2="100%">
      <stop offset="0%" style="stop-color:#3B82F6" />
      <stop offset="100%" style="stop-color:#1E40AF" />
    </linearGradient>
    <linearGradient id="chart-gradient" x1="0%" y1="0%" x2="100%" y2="100%">
      <stop offset="0%" style="stop-color:#10B981" />
      <stop offset="100%" style="stop-color:#059669" />
    </linearGradient>
  </defs>
  
  <!-- Background -->
  <rect width="400" height="240" fill="url(#bg-gradient)" />
  
  <!-- Desktop Computer -->
  <g transform="translate(80, 60)">
    <!-- Monitor Base -->
    <rect x="90" y="110" width="60" height="8" rx="4" fill="#6B7280" />
    <rect x="110" y="118" width="20" height="15" rx="2" fill="#6B7280" />
    
    <!-- Monitor Screen -->
    <rect x="20" y="20" width="200" height="120" rx="8" fill="#1F2937" stroke="#374151" stroke-width="2" />
    <rect x="30" y="30" width="180" height="100" rx="4" fill="url(#screen-gradient)" />
    
    <!-- Website Content -->
    <rect x="40" y="40" width="160" height="12" rx="2" fill="white" opacity="0.9" />
    <rect x="40" y="58" width="120" height="8" rx="1" fill="white" opacity="0.7" />
    <rect x="40" y="72" width="140" height="8" rx="1" fill="white" opacity="0.7" />
    <rect x="40" y="86" width="100" height="8" rx="1" fill="white" opacity="0.7" />
    
    <!-- Navigation Dots -->
    <circle cx="50" cy="105" r="3" fill="#10B981" />
    <circle cx="65" cy="105" r="3" fill="#F59E0B" />
    <circle cx="80" cy="105" r="3" fill="#EF4444" />
  </g>
  
  <!-- Growth Chart -->
  <g transform="translate(280, 80)">
    <rect x="0" y="0" width="80" height="60" rx="6" fill="white" stroke="#E5E7EB" stroke-width="1" />
    
    <!-- Chart Bars -->
    <rect x="10" y="40" width="8" height="15" rx="1" fill="url(#chart-gradient)" />
    <rect x="22" y="35" width="8" height="20" rx="1" fill="url(#chart-gradient)" />
    <rect x="34" y="25" width="8" height="30" rx="1" fill="url(#chart-gradient)" />
    <rect x="46" y="15" width="8" height="40" rx="1" fill="url(#chart-gradient)" />
    <rect x="58" y="10" width="8" height="45" rx="1" fill="url(#chart-gradient)" />
    
    <!-- Arrow Up -->
    <path d="M70 8 L75 3 L80 8" stroke="#10B981" stroke-width="2" fill="none" stroke-linecap="round" stroke-linejoin="round" />
  </g>
  
  <!-- People Icons -->
  <g transform="translate(30, 150)">
    <!-- Person 1 -->
    <circle cx="15" cy="15" r="8" fill="#3B82F6" />
    <rect x="7" y="25" width="16" height="20" rx="8" fill="#3B82F6" />
    
    <!-- Person 2 -->
    <circle cx="45" cy="15" r="8" fill="#8B5CF6" />
    <rect x="37" y="25" width="16" height="20" rx="8" fill="#8B5CF6" />
    
    <!-- Person 3 -->
    <circle cx="75" cy="15" r="8" fill="#10B981" />
    <rect x="67" y="25" width="16" height="20" rx="8" fill="#10B981" />
  </g>
  
  <!-- Connection Lines -->
  <g stroke="#3B82F6" stroke-width="2" fill="none" opacity="0.6">
    <path d="M90 180 Q150 160 180 140" stroke-dasharray="5,5" />
    <path d="M120 180 Q180 160 220 140" stroke-dasharray="5,5" />
    <path d="M150 180 Q220 160 260 140" stroke-dasharray="5,5" />
  </g>
  
  <!-- Floating Elements -->
  <circle cx="320" cy="40" r="4" fill="#F59E0B" opacity="0.8" />
  <circle cx="350" cy="200" r="6" fill="#EF4444" opacity="0.6" />
  <circle cx="50" cy="30" r="3" fill="#10B981" opacity="0.7" />
</svg>